<svg id="visual" viewBox="0 0 960 540" width="960" height="540" xmlns="http://www.w3.org/2000/svg" xmlns:xlink="http://www.w3.org/1999/xlink" version="1.1"><rect x="0" y="0" width="960" height="540" fill="#d8dbdd"></rect><defs><linearGradient id="grad1_0" x1="43.8%" y1="100%" x2="100%" y2="0%"><stop offset="14.444444444444446%" stop-color="#d8dbdd" stop-opacity="1"></stop><stop offset="85.55555555555554%" stop-color="#d8dbdd" stop-opacity="1"></stop></linearGradient></defs><defs><linearGradient id="grad2_0" x1="0%" y1="100%" x2="56.3%" y2="0%"><stop offset="14.444444444444446%" stop-color="#d8dbdd" stop-opacity="1"></stop><stop offset="85.55555555555554%" stop-color="#d8dbdd" stop-opacity="1"></stop></linearGradient></defs><g transform="translate(960, 540)"><path d="M-297 0C-291.7 -56.2 -286.4 -112.5 -257.2 -148.5C-228 -184.5 -174.9 -200.3 -128 -221.7C-81.1 -243.1 -40.6 -270 0 -297L0 0Z" fill="#23b2ff"></path></g><g transform="translate(0, 0)"><path d="M297 0C293 58.5 289.1 117.1 257.2 148.5C225.3 179.9 165.5 184.2 118 204.4C70.5 224.6 35.2 260.8 0 297L0 0Z" fill="#23b2ff"></path></g></svg>